# xmcd CD database file
# Copyright (C) 1993-1998 Ti Kan
#
# Track frame offsets:
#	150
#	14990
#	27065
#	46342
#	66142
#	79437
#	113495
#	135422
#	157565
#	169337
#	185680
#	201312
#	209815
#
# Disc length: 3033 seconds
#
# Revision: 1
# Processed by: cddbd v1.4b41PL1 Copyright (c) Steve Scherf et al.
# Submitted via: CDValet v3.31 - Copyright (c) 1997 Greg Leichner
#
DISCID=b60bd70d
DTITLE=ZZ Top - Live Nationwide
DYEAR=1900
DGENRE=
TTITLE0=I Thank You
TTITLE1=Waiting For The Bus
TTITLE2=Jesus Left Chicago
TTITLE3=I'm Bad, I'm Nationwide
TTITLE4=Low Down In The Street
TTITLE5=A Fool For Your Stockings
TTITLE6=Cheap Sunglasses
TTITLE7=Arrested For Driving While Blind
TTITLE8=She Loves My Automobile
TTITLE9=Hi-Fi Mama
TTITLE10=Dust My Broom
TTITLE11=Jailhouse Rock
TTITLE12=Tush
EXTD=
EXTT0=
EXTT1=
EXTT2=
EXTT3=
EXTT4=
EXTT5=
EXTT6=
EXTT7=
EXTT8=
EXTT9=
EXTT10=
EXTT11=
EXTT12=
PLAYORDER=
